<svg width="209" height="48" viewBox="0 0 209 48" fill="none" xmlns="http://www.w3.org/2000/svg">
<path d="M65.1011 47.8778C64.1981 47.8778 63.4392 47.5403 62.7806 46.8434C62.1038 46.1283 61.7754 45.2964 61.7754 44.2966V23.6598C61.7754 22.6619 62.1038 21.8282 62.7806 21.113C63.4392 20.4179 64.1999 20.0786 65.1011 20.0786H79.754C79.7595 20.0877 79.7668 20.1042 79.7668 20.1279V22.235C79.7668 22.2587 79.7613 22.2751 79.754 22.2842H67.8376C67.1188 22.2842 66.5058 22.5469 66.0151 23.0669C65.5408 23.5667 65.3 24.1834 65.3 24.8967V43.0579C65.3 43.7712 65.5408 44.3878 66.0151 44.8877C66.5058 45.4058 67.1188 45.6703 67.8376 45.6703H79.754C79.7595 45.6795 79.7668 45.6959 79.7668 45.7196V47.8267C79.7668 47.8504 79.7613 47.8668 79.754 47.876H65.1011V47.8778Z" fill="#D49696"/>
<path d="M86.7963 47.8779C85.8933 47.8779 85.1344 47.5404 84.4758 46.8435C83.799 46.1284 83.4688 45.2965 83.4688 44.2967V20.1298C83.4688 20.1061 83.4742 20.0897 83.4815 20.0806H86.9842C86.9897 20.0897 86.997 20.1061 86.997 20.1298V43.0598C86.997 43.7732 87.2378 44.3898 87.7121 44.8897C88.2028 45.4078 88.8158 45.6723 89.5346 45.6723H95.3998C96.1185 45.6723 96.7315 45.4096 97.2223 44.8897C97.6966 44.3898 97.9374 43.7732 97.9374 43.0598V20.1298C97.9374 20.1061 97.9429 20.0897 97.9502 20.0806H101.453C101.458 20.0897 101.466 20.1061 101.466 20.1298V44.2967C101.466 45.2947 101.137 46.1284 100.46 46.8435C99.8018 47.5386 99.0429 47.8779 98.1399 47.8779H86.7963Z" fill="#D49696"/>
<path d="M108.491 47.8778C107.588 47.8778 106.829 47.5403 106.17 46.8434C105.493 46.1283 105.165 45.2964 105.165 44.2966V23.6598C105.165 22.6619 105.493 21.8282 106.17 21.113C106.829 20.4179 107.59 20.0786 108.491 20.0786H119.829C120.73 20.0786 121.491 20.4161 122.149 21.113C122.826 21.8282 123.155 22.66 123.155 23.6598V44.2966C123.155 45.2945 122.826 46.1283 122.149 46.8434C121.491 47.5385 120.732 47.8778 119.829 47.8778H108.491ZM111.229 22.2879C110.51 22.2879 109.897 22.5506 109.407 23.0705C108.932 23.5704 108.691 24.187 108.691 24.9003V43.0616C108.691 43.7749 108.932 44.3915 109.407 44.8914C109.897 45.4095 110.51 45.674 111.229 45.674H117.094C117.813 45.674 118.426 45.4113 118.917 44.8914C119.391 44.3915 119.632 43.7749 119.632 43.0616V24.9003C119.632 24.187 119.391 23.5722 118.917 23.0723C118.424 22.5524 117.811 22.2897 117.092 22.2897H111.229V22.2879Z" fill="#D49696"/>
<path d="M126.872 47.8779C126.867 47.8688 126.859 47.8524 126.859 47.8287V20.1298C126.859 20.1061 126.865 20.0897 126.872 20.0806H130.375C130.38 20.0897 130.388 20.1061 130.388 20.1298V47.8268C130.388 47.8505 130.382 47.867 130.375 47.8761H126.872V47.8779Z" fill="#D49696"/>
<path d="M146.849 47.8776C146.843 47.8684 146.836 47.852 146.836 47.8283V23.4315C146.836 22.8003 146.321 22.2876 145.686 22.2876H139.613C139.608 22.2785 139.601 22.2603 139.601 22.2384V20.1313C139.601 20.1076 139.606 20.0912 139.613 20.082H157.583C157.588 20.0912 157.596 20.1076 157.596 20.1313V22.2384C157.596 22.2621 157.59 22.2785 157.583 22.2876H151.51C150.877 22.2876 150.36 22.8003 150.36 23.4315V47.8265C150.36 47.8502 150.355 47.8666 150.348 47.8757H146.849V47.8776Z" fill="#D49696"/>
<path d="M175.777 47.8779C175.772 47.8688 175.764 47.8524 175.764 47.8287V36.2277C175.764 35.5965 175.25 35.0839 174.615 35.0839H165.971C165.338 35.0839 164.822 35.5965 164.822 36.2277V47.8287C164.822 47.8524 164.817 47.8688 164.809 47.8779H161.307C161.301 47.8688 161.294 47.8524 161.294 47.8287V20.1298C161.294 20.1061 161.299 20.0897 161.307 20.0806H164.809C164.815 20.0897 164.822 20.1061 164.822 20.1298V31.7308C164.822 32.362 165.337 32.8746 165.971 32.8746H174.615C175.248 32.8746 175.764 32.362 175.764 31.7308V20.1298C175.764 20.1061 175.77 20.0897 175.777 20.0806H179.28C179.285 20.0897 179.293 20.1061 179.293 20.1298V47.8268C179.293 47.8505 179.287 47.867 179.28 47.8761H175.777V47.8779Z" fill="#D49696"/>
<path d="M186.322 47.8778C185.419 47.8778 184.66 47.5403 184.001 46.8434C183.324 46.1283 182.994 45.2964 182.994 44.2966V23.6598C182.994 22.6619 183.323 21.8282 183.999 21.113C184.658 20.4179 185.419 20.0786 186.32 20.0786H197.658C198.559 20.0786 199.32 20.4161 199.978 21.113C200.655 21.8282 200.984 22.6619 200.984 23.6598V44.2966C200.984 45.2945 200.655 46.1283 199.977 46.8434C199.318 47.5385 198.559 47.8778 197.656 47.8778H186.322ZM189.058 22.2879C188.339 22.2879 187.726 22.5506 187.236 23.0705C186.761 23.5704 186.521 24.187 186.521 24.9003V43.0616C186.521 43.7749 186.761 44.3915 187.236 44.8914C187.726 45.4095 188.339 45.674 189.058 45.674H194.923C195.642 45.674 196.255 45.4113 196.746 44.8914C197.22 44.3915 197.461 43.7749 197.461 43.0616V24.9003C197.461 24.187 197.22 23.5722 196.746 23.0723C196.253 22.5524 195.64 22.2897 194.921 22.2897H189.058V22.2879Z" fill="#D49696"/>
<path d="M204.701 47.8779C204.696 47.8688 204.688 47.8524 204.688 47.8287V20.1298C204.688 20.1061 204.694 20.0897 204.701 20.0806H208.204C208.209 20.0897 208.217 20.1061 208.217 20.1298V47.8268C208.217 47.8505 208.211 47.867 208.204 47.8761H204.701V47.8779Z" fill="#D49696"/>
<path d="M56.9788 41.7115C56.9788 45.1796 54.3098 48 51.0297 48H5.93449C5.93449 48 5.82503 48 5.55504 48C5.30146 48 4.72132 47.865 4.65017 47.8486L4.64288 47.8468C1.9885 47.2155 0 44.7053 0 41.7115V19.5167C0 17.9678 0.966886 16.6416 2.40445 16.2183C3.7891 15.8097 5.25767 16.3679 6.05855 17.6085C11.8416 26.5677 19.2903 30.5192 28.3918 34.5455H28.4082C29.1525 34.1387 29.8859 33.7428 30.612 33.3488C38.2632 29.2076 44.8708 25.63 50.061 18.5042C53.3411 14.0017 52.7026 9.58139 48.6362 6.06408C46.8301 4.50245 44.5315 3.70887 41.806 3.70887C30.6558 3.70887 30.3438 18.5151 30.3438 18.6848C30.3438 19.7101 29.5137 20.5402 28.4885 20.5402C27.465 20.5402 26.635 19.7101 26.635 18.6848C26.635 17.7015 26.2555 15.2642 24.4038 11.0025C22.2986 6.16259 19.1936 3.70887 15.1728 3.70887C10.6832 3.70887 6.03665 7.498 4.99132 11.9968C4.78517 12.8853 4.00437 13.5548 3.09404 13.511C1.90641 13.4544 1.10918 12.3562 1.35729 11.2507C2.74924 5.04793 8.94643 0 15.1728 0C20.7278 0 25.0953 3.29292 27.8044 9.52301C28.005 9.98639 28.1911 10.4516 28.3626 10.915C28.3699 10.9314 28.3918 10.9314 28.3973 10.915C28.5031 10.6085 28.6162 10.302 28.7366 9.99551C31.2943 3.45711 35.8149 0 41.806 0C45.4491 0 48.5632 1.09642 51.0625 3.25826C56.5519 8.00699 57.4476 14.6658 53.0602 20.6879C47.3738 28.4924 40.425 32.2542 32.3779 36.6107C31.4019 37.1398 30.4077 37.6779 29.3988 38.2325C28.8844 38.5153 28.2659 38.5427 27.7277 38.3073C18.4091 34.2208 10.1432 30.0504 3.74167 20.8175C3.73255 20.8029 3.70883 20.8083 3.70883 20.8266V41.7115C3.70883 43.1345 4.71403 44.2911 5.94909 44.2911H51.0297C52.2648 44.2911 53.27 43.1345 53.27 41.7115V23.9352C53.27 23.7656 53.3356 23.6014 53.4524 23.4773C54.2916 22.5889 54.3445 22.4885 54.8899 21.7004C55.3989 20.967 55.7711 20.2884 56.0703 19.5824C56.2381 19.1865 56.8274 19.2978 56.8292 19.7302L56.9788 41.7115Z" fill="#D49696"/>
</svg>
